HIERARCHY
ROOT Hips
{
  OFFSET -35.4901 99.2528 17.4586
  CHANNELS 6 Xposition Yposition Zposition Zrotation Xrotation Yrotation
  JOINT LeftUpLeg
  {
    OFFSET 8.64259 1.95398 -2.38835
    CHANNELS 3 Zrotation Xrotation Yrotation
    JOINT LeftLeg
    {
      OFFSET 43.7702 0 0
      CHANNELS 3 Zrotation Xrotation Yrotation
      JOINT LeftFoot
      {
        OFFSET 40.6238 0 0
        CHANNELS 3 Zrotation Xrotation Yrotation
        JOINT LeftToeBase
        {
          OFFSET 12.7242 0 0
          CHANNELS 3 Zrotation Xrotation Yrotation
          End Site
          {
            OFFSET 0 0 0
          }
        }
      }
    }
  }
  JOINT RightUpLeg
  {
    OFFSET -8.2249 1.95398 -2.59336
    CHANNELS 3 Zrotation Xrotation Yrotation
    JOINT RightLeg
    {
      OFFSET 43.5653 0 0
      CHANNELS 3 Zrotation Xrotation Yrotation
      JOINT RightFoot
      {
        OFFSET 40.6238 0 0
        CHANNELS 3 Zrotation Xrotation Yrotation
        JOINT RightToeBase
        {
          OFFSET 12.7242 0 0
          CHANNELS 3 Zrotation Xrotation Yrotation
          End Site
          {
            OFFSET 0 0 0
          }
        }
      }
    }
  }
  JOINT Spine
  {
    OFFSET 0.165834 0.87714 6.61349
    CHANNELS 3 Zrotation Xrotation Yrotation
    JOINT Spine1
    {
      OFFSET 7.38963 1.71661e-005 0
      CHANNELS 3 Zrotation Xrotation Yrotation
      JOINT Spine2
      {
        OFFSET 11.9445 1.14441e-005 0
        CHANNELS 3 Zrotation Xrotation Yrotation
        JOINT Spine3
        {
          OFFSET 14.7254 4.19617e-005 0
          CHANNELS 3 Zrotation Xrotation Yrotation
          JOINT Spine4
          {
            OFFSET 10.9679 0 0
            CHANNELS 3 Zrotation Xrotation Yrotation
            JOINT RightShoulder
            {
              OFFSET 2.46616 -1.6653 3.69651
              CHANNELS 3 Zrotation Xrotation Yrotation
              JOINT RightArm
              {
                OFFSET 13.0012 0 0
                CHANNELS 3 Zrotation Xrotation Yrotation
                JOINT RightForeArm
                {
                  OFFSET 28.7848 1.52588e-005 0
                  CHANNELS 3 Zrotation Xrotation Yrotation
                  JOINT RightHand
                  {
                    OFFSET 26.5688 1.52588e-005 0
                    CHANNELS 3 Zrotation Xrotation Yrotation
                    End Site
                    {
                      OFFSET 0 0 0
                    }
                  }
                }
              }
            }
            JOINT LeftShoulder
            {
              OFFSET 2.38034 -1.29275 -3.7523
              CHANNELS 3 Zrotation Xrotation Yrotation
              JOINT LeftArm
              {
                OFFSET 16.3182 6.10351e-005 0
                CHANNELS 3 Zrotation Xrotation Yrotation
                JOINT LeftForeArm
                {
                  OFFSET 27.0901 0 0
                  CHANNELS 3 Zrotation Xrotation Yrotation
                  JOINT LeftHand
                  {
                    OFFSET 24.5451 1.52588e-005 0
                    CHANNELS 3 Zrotation Xrotation Yrotation
                    End Site
                    {
                      OFFSET 0 0 0
                    }
                  }
                }
              }
            }
            JOINT Neck
            {
              OFFSET 5.0226 -0.0266342 0
              CHANNELS 3 Zrotation Xrotation Yrotation
              JOINT Head
              {
                OFFSET 6.69364 2.86102e-005 0
                CHANNELS 3 Zrotation Xrotation Yrotation
                End Site
                {
                  OFFSET 0 0 0
                }
              }
            }
          }
        }
      }
    }
  }
}
MOTION
Frames:	12
Frame Time:	0.0416667
10.1251 99.4589 18.2644 -152.245 -81.6549 -152.853 -177.791 -1.10445 89.4087 -14.1551 2.32355 0.00283902 70.4082 4.12157 -1.61182 16.3465 -2.30327 4.06558 169.956 -3.18176 87.6363 -12.8762 -4.00245 -0.325332 71.8317 -5.42705 3.61809 21.0992 -0.613827 2.3301 0.189877 7.66727 -90.1073 11.5397 0.327593 -0.247424 -0.131246 0.316382 -0.261613 -22.6667 0.386808 -0.137539 -2.65402 0.386802 -0.137542 89.5716 -31.4848 -107.033 40.6824 -14.1655 -6.79156 1.85307 -30.069 -16.8351 -20.8496 -0.639029 -5.27064 -83.4471 -53.2269 88.9086 -21.9567 19.7865 -17.524 0.242979 11.2934 -8.874 1.26162 -0.080104 -4.04126 7.55977 -0.521112 -0.370199 -5.42556 -0.464105 0.95689 
10.1028 99.4634 18.2472 -151.871 -81.7536 -152.367 -177.766 -0.90655 89.5314 -14.2916 2.03366 0.0198749 70.5242 4.13057 -1.98123 15.9873 -2.31696 4.07797 170.108 -3.05725 87.8354 -12.9088 -4.31815 -0.355414 71.5825 -5.40047 3.02485 21.1772 -0.779974 2.69071 0.205812 7.64641 -90.1401 11.5815 0.343885 -0.314707 -0.0894319 0.329702 -0.329546 -22.6248 0.422565 -0.196813 -2.61217 0.422562 -0.19681 89.7325 -31.1759 -106.837 40.9378 -14.0247 -6.70402 2.63955 -29.996 -15.9007 -21.8362 -0.473777 -6.21757 -83.6479 -53.4997 88.6433 -21.8953 19.6755 -17.3656 0.302722 11.4162 -8.90948 0.996522 -0.0885899 -4.29437 7.60927 -0.627332 -0.396651 -5.867 -0.578403 1.3236 
10.1607 99.4804 18.2765 -153.281 -81.8462 -153.97 -177.816 -1.1365 89.3305 -13.8496 2.55741 -0.0472875 71.0305 4.46722 -2.10263 14.5302 -3.47289 5.60748 169.965 -2.9403 87.6245 -13.1778 -4.59551 -0.349086 71.6047 -5.41682 2.44186 20.0108 -1.06933 3.40257 0.199691 7.6577 -90.1695 11.5589 0.317966 -0.370453 -0.112081 0.301357 -0.384095 -22.6473 0.414594 -0.257771 -2.63467 0.414603 -0.257766 90.077 -30.6493 -106.362 41.144 -13.7676 -6.87004 3.55251 -29.1241 -14.8406 -24.0815 -0.0285177 -8.62054 -83.9449 -54.348 88.2992 -21.1334 19.7748 -17.7428 -0.258614 10.3592 -8.29937 1.19606 -0.133082 -5.7441 7.16711 -0.879738 0.223108 -4.80042 -0.936462 1.15254 
10.1764 99.4788 18.3576 -153.345 -81.9399 -154.076 -177.773 -1.06257 89.3117 -13.9617 2.60796 -0.124263 71.2054 4.51711 -2.08247 14.5295 -3.33613 5.4258 169.788 -2.97941 87.4675 -13.0263 -4.36642 -0.256685 71.785 -5.44468 3.04553 19.8842 -0.937921 3.1205 0.171486 7.65739 -90.1625 11.5594 0.265134 -0.350989 -0.111545 0.249434 -0.362324 -22.6467 0.358365 -0.25508 -2.63405 0.358358 -0.255083 89.9595 -30.7267 -106.563 40.9734 -13.784 -6.92853 3.94137 -29.4886 -14.6399 -24.4212 -0.0380755 -8.54198 -83.8514 -54.3205 88.4314 -21.2466 19.6024 -17.6713 -0.0827694 10.6732 -8.39629 1.28686 -0.1118 -5.03078 7.36736 -0.757859 0.325418 -4.81413 -0.829992 0.836409 
10.1661 99.4687 18.3944 -151.089 -81.7047 -151.603 -177.643 -1.08595 89.5514 -14.1956 2.15129 -0.163915 71.3759 4.48244 -2.5837 14.6946 -3.90668 6.17137 169.981 -3.09235 87.7125 -12.9033 -4.52621 -0.300469 71.5252 -5.39867 2.83021 20.121 -1.15129 3.57238 0.241914 7.66433 -90.1534 11.5458 0.409509 -0.347765 -0.125132 0.393803 -0.365467 -22.6606 0.495093 -0.208617 -2.64799 0.495094 -0.208624 89.8254 -31.2579 -106.626 40.7316 -13.5871 -6.6964 3.63871 -29.7753 -14.7544 -23.6108 -0.180348 -7.89476 -84.2825 -53.587 87.7311 -22.0149 19.3457 -17.2429 0.435633 11.7697 -8.79605 0.949375 -0.127719 -5.65228 7.11979 -0.947714 -0.456629 -4.42606 -0.865521 1.29945 
10.2434 99.4732 18.4366 -154.723 -82.0226 -155.548 -177.833 -1.07509 89.1583 -14.0427 3.15261 -0.0865334 71.1577 4.55058 -1.95795 14.8677 -3.84574 6.09658 169.817 -2.84998 87.3636 -13.1453 -5.04909 -0.338432 71.1741 -5.23588 2.23175 21.2405 -1.14745 3.51138 0.167801 7.64839 -90.123 11.5774 0.276248 -0.27368 -0.0935518 0.263931 -0.285575 -22.6288 0.345722 -0.178002 -2.61618 0.345728 -0.177996 89.7678 -31.3835 -106.691 40.5801 -13.7673 -6.43726 4.15496 -29.322 -14.9173 -25.224 0.061329 -8.92642 -84.1936 -54.0882 87.914 -21.3585 19.8235 -17.4489 -0.260374 10.0398 -8.36987 0.912786 -0.124154 -5.56047 6.86168 -0.953816 -0.477702 -4.17373 -0.867688 1.40586 
10.2203 99.4873 18.5265 -153.177 -81.8423 -153.911 -177.731 -1.24625 89.294 -13.997 2.67467 -0.169464 71.2099 4.55455 -2.03517 15.0462 -3.6748 5.87749 169.772 -3.10257 87.4089 -13.0835 -4.54255 -0.292865 71.6879 -5.37842 2.78225 19.9777 -1.16554 3.61123 0.19632 7.64195 -90.1345 11.5903 0.327623 -0.301789 -0.0805972 0.314028 -0.315922 -22.616 0.403164 -0.189379 -2.60331 0.403176 -0.189373 89.9267 -31.3447 -106.397 40.9309 -13.5929 -6.37025 4.19359 -29.4432 -14.511 -25.1514 0.136158 -9.3507 -83.9247 -54.0885 88.302 -21.6284 19.2367 -17.2374 0.393647 11.9769 -8.5679 1.37708 -0.113998 -5.07812 6.8113 -0.911274 -0.495249 -4.30947 -0.829743 1.66039 
10.2477 99.5058 18.5971 -153.161 -81.8404 -153.937 -177.784 -1.33281 89.2079 -13.952 2.59803 -0.138745 71.1865 4.54501 -2.03341 14.921 -3.38637 5.49679 169.745 -3.14088 87.3415 -13.0444 -4.897 -0.314994 71.4983 -5.29616 2.6419 20.2511 -0.949312 3.12421 0.214865 7.66906 -90.1119 11.5362 0.375158 -0.261347 -0.13472 0.363293 -0.27761 -22.6702 0.436354 -0.13652 -2.65759 0.43636 -0.136512 90.1023 -31.8548 -105.871 40.6154 -13.4558 -6.7688 3.91139 -29.5269 -14.6288 -24.6187 0.17705 -9.7014 -83.9768 -53.797 88.1964 -21.7184 19.1698 -17.6868 0.326161 11.7298 -8.25754 1.13943 -0.105763 -4.86739 7.19777 -1.07481 -1.08434 -4.60524 -0.88265 2.06512 
10.2641 99.5052 18.6544 -151.416 -81.8486 -152.048 -177.741 -1.20994 89.3214 -14.0113 2.71461 -0.120885 71.2761 4.59727 -1.68039 14.6484 -3.19233 5.24033 169.84 -3.09338 87.5234 -12.9492 -5.12 -0.296154 71.3683 -5.33349 2.09358 20.2781 -1.16394 3.59293 0.23178 7.64372 -90.1154 11.5869 0.407056 -0.272076 -0.0839844 0.394689 -0.289735 -22.6196 0.47001 -0.137153 -2.60692 0.470002 -0.137161 90.1081 -31.9933 -105.81 40.6331 -13.3553 -6.69791 4.02966 -30.2699 -14.786 -23.0192 -0.119776 -8.40212 -83.87 -53.7648 88.3477 -21.8798 18.9301 -17.6451 0.325334 11.528 -7.96538 1.18545 -0.109519 -4.98096 6.82493 -1.06056 -1.24763 -4.50178 -0.839886 2.12405 
10.3199 99.4843 18.6775 -150.506 -81.6583 -151.138 -177.661 -1.28373 89.3523 -14.1843 2.0373 -0.259454 71.4703 4.57692 -2.25257 14.3835 -3.24309 5.30368 169.689 -3.16635 87.3535 -12.973 -4.9989 -0.238532 71.6336 -5.36671 2.87358 19.9034 -1.13842 3.55353 0.262119 7.64606 -90.1202 11.5824 0.465221 -0.287465 -0.0885452 0.452116 -0.307663 -22.6243 0.530106 -0.134352 -2.61164 0.530104 -0.134354 90.1271 -31.8845 -105.812 40.8752 -13.3402 -6.49386 3.95614 -30.2507 -15.4936 -24.4319 -0.117206 -8.21591 -84.0024 -53.8159 88.1612 -22.6171 17.8699 -17.5803 0.882158 12.8516 -7.58735 1.30883 -0.126603 -5.49896 6.29532 -1.22028 -1.29964 -4.10687 -0.990787 2.40568 
10.3316 99.4859 18.7242 -149.44 -81.6933 -149.99 -177.741 -1.06464 89.3437 -14.4696 1.83776 -0.140898 71.3892 4.48298 -2.41135 15.0475 -3.52539 5.68107 169.935 -3.18706 87.5395 -12.8403 -4.83496 -0.407302 71.6222 -5.36329 2.93004 19.8038 -1.15508 3.59267 0.265959 7.63762 -90.1314 11.5993 0.467547 -0.310281 -0.0715792 0.453434 -0.330568 -22.6073 0.539179 -0.155415 -2.59467 0.539184 -0.155419 90.1173 -31.8432 -105.846 40.9161 -13.3533 -6.52674 3.78444 -31.1594 -15.5955 -23.1152 -0.482093 -6.36177 -83.8137 -54.0508 88.4581 -22.1648 18.302 -17.7453 0.528002 11.95 -7.51839 1.04629 -0.119795 -5.36833 6.22201 -1.10102 -1.10959 -4.08966 -0.905862 2.13301 
10.38 99.4967 18.7777 -149.125 -81.8217 -149.642 -177.756 -0.901515 89.3393 -14.5676 1.93452 -0.123828 71.4756 4.54293 -2.37691 14.8539 -3.59324 5.76617 169.837 -3.04187 87.5297 -12.7742 -4.98854 -0.269619 71.2478 -5.26472 2.6156 20.5976 -1.25879 3.78803 0.259226 7.62601 -90.1532 11.6224 0.443913 -0.351327 -0.0485328 0.428023 -0.370524 -22.5842 0.528973 -0.20167 -2.5715 0.528977 -0.201669 90.2266 -31.5625 -105.735 41.0645 -13.1737 -6.59602 3.91215 -31.2866 -14.9404 -22.7321 -0.332015 -7.32965 -83.7525 -54.4277 88.5844 -21.3768 19.2657 -17.8952 0.00363442 11.1419 -7.83421 1.55225 -0.130326 -5.53973 6.10002 -1.06854 -0.822096 -4.14771 -0.929763 2.03255 
